<svg width="239" height="52" fill="none" xmlns="http://www.w3.org/2000/svg"><path d="M148.668 32.152c.922.563 2.202 1.024 3.584 1.024 2.048 0 3.277-1.075 3.277-2.713 0-1.485-.871-2.355-2.97-3.175-2.56-.921-4.096-2.303-4.096-4.505 0-2.457 1.997-4.3 5.069-4.3 1.587 0 2.765.358 3.43.767l-.563 1.69c-.512-.307-1.536-.768-2.918-.768-2.15 0-2.97 1.28-2.97 2.355 0 1.485.973 2.202 3.072 3.072 2.663 1.075 3.994 2.355 3.994 4.71 0 2.458-1.741 4.608-5.427 4.608-1.485 0-3.123-.46-3.994-1.024l.512-1.74ZM161.375 29.337c.051 2.816 1.792 3.942 3.84 3.942 1.434 0 2.355-.256 3.072-.563l.358 1.485c-.716.307-1.945.716-3.737.716-3.43 0-5.478-2.355-5.478-5.785 0-3.481 1.996-6.144 5.273-6.144 3.635 0 4.608 3.277 4.608 5.376 0 .46 0 .768-.051.973h-7.885Zm5.939-1.485c0-1.331-.512-3.379-2.816-3.379-2.099 0-2.969 1.894-3.123 3.38h5.939ZM179.802 34.252c-.512.256-1.689.665-3.225.665-3.379 0-5.581-2.355-5.581-5.836 0-3.533 2.355-6.093 5.99-6.093 1.178 0 2.253.308 2.816.615l-.461 1.587a5.101 5.101 0 0 0-2.355-.563c-2.56 0-3.942 1.945-3.942 4.3 0 2.663 1.69 4.25 3.891 4.25 1.126 0 1.894-.307 2.509-.563l.358 1.638ZM191.526 31.54c0 1.178.051 2.202.102 3.123h-1.792l-.102-1.843h-.052c-.512.922-1.689 2.15-3.686 2.15-1.741 0-3.84-1.023-3.84-5.017v-6.656h1.997v6.247c0 2.15.666 3.634 2.509 3.634 1.382 0 2.304-.972 2.713-1.894.103-.307.205-.665.205-1.075v-6.963h1.997v8.294h-.051ZM194.907 26.777c0-1.331-.051-2.509-.102-3.533h1.792l.102 2.253h.051c.512-1.536 1.741-2.509 3.123-2.509.205 0 .359 0 .563.052v1.945c-.204-.051-.409-.051-.716-.051-1.434 0-2.458 1.126-2.714 2.662-.051.307-.102.614-.102.973v6.092h-1.997v-7.884ZM204.735 20.02c0 .717-.461 1.28-1.28 1.28-.716 0-1.228-.563-1.228-1.28 0-.717.512-1.28 1.28-1.28.716 0 1.228.563 1.228 1.28Zm-2.252 14.643V23.246h1.996v11.417h-1.996ZM210.315 19.969v3.276h2.918v1.588h-2.918v6.143c0 1.434.41 2.202 1.536 2.202.512 0 .922-.051 1.178-.154l.102 1.587a5.147 5.147 0 0 1-1.792.308c-.921 0-1.689-.308-2.201-.87-.564-.615-.768-1.64-.768-2.97v-6.246h-1.741v-1.588h1.741v-2.764l1.945-.512ZM217.79 20.02c0 .717-.461 1.28-1.28 1.28-.717 0-1.229-.563-1.229-1.28 0-.717.512-1.28 1.28-1.28.717 0 1.229.563 1.229 1.28Zm-2.253 14.643V23.246h1.997v11.417h-1.997ZM222.035 29.337c.052 2.816 1.792 3.942 3.84 3.942 1.434 0 2.355-.256 3.072-.563l.359 1.485c-.717.307-1.946.716-3.738.716-3.43 0-5.478-2.355-5.478-5.785 0-3.481 1.997-6.144 5.273-6.144 3.635 0 4.608 3.277 4.608 5.376 0 .46 0 .768-.051.973h-7.885Zm5.991-1.485c0-1.331-.512-3.379-2.816-3.379-2.099 0-2.97 1.894-3.123 3.38h5.939ZM232.223 32.564c.615.41 1.69.82 2.714.82 1.485 0 2.15-.769 2.15-1.69 0-1.024-.614-1.536-2.099-2.1-1.997-.768-2.969-1.894-2.969-3.225 0-1.843 1.484-3.328 3.891-3.328 1.126 0 2.099.307 2.713.717l-.512 1.536a4.396 4.396 0 0 0-2.304-.666c-1.177 0-1.843.717-1.843 1.587 0 .922.666 1.383 2.099 1.946 1.946.717 2.918 1.74 2.918 3.43 0 2.048-1.535 3.43-4.198 3.43-1.229 0-2.355-.307-3.123-.819l.563-1.638Z" fill="#E91F27"/><path d="M62.11 35.018c-1.639 0-3.123-.256-4.557-.768-1.433-.512-2.662-1.28-3.686-2.304-1.024-.972-1.843-2.201-2.458-3.635-.614-1.433-.87-3.02-.87-4.761 0-1.74.307-3.328.87-4.762.615-1.484 1.434-2.713 2.51-3.788 1.074-1.075 2.354-1.843 3.839-2.458a13.328 13.328 0 0 1 4.761-.87c1.23 0 2.356.153 3.38.46 1.023.308 1.843.615 2.56 1.025l.972-.87h1.383l.153 8.089h-1.382c-.768-2.458-1.74-4.301-2.816-5.427-1.075-1.178-2.406-1.741-3.994-1.741-1.945 0-3.43.87-4.454 2.61-1.024 1.742-1.536 4.148-1.536 7.271 0 1.74.154 3.277.512 4.506.359 1.228.82 2.252 1.383 3.02.614.768 1.33 1.383 2.15 1.74.82.36 1.74.564 2.713.564 1.434 0 2.765-.41 3.892-1.177 1.126-.768 2.201-1.997 3.123-3.584l1.33.819c-.46.921-.972 1.74-1.535 2.457a8.56 8.56 0 0 1-1.997 1.844 10.29 10.29 0 0 1-2.713 1.33c-.973.257-2.15.41-3.533.41Z" fill="#221F1F"/><path d="M92.212 34.457h-9.42V33.33c.204 0 .46-.051.716-.102.256-.051.512-.103.615-.154a.916.916 0 0 0 .46-.512c.103-.205.154-.563.154-.972v-7.322c0-1.075-.205-1.894-.614-2.406-.41-.512-.973-.82-1.69-.82-.41 0-.819.052-1.177.205a2.887 2.887 0 0 0-1.024.564c-.308.204-.564.41-.717.614-.154.205-.307.41-.46.563v8.397c0 .41.05.716.153.921.102.205.256.41.512.563.153.103.358.154.614.256l.768.154v1.126H71.58V33.28c.256 0 .512-.051.768-.102.256-.052.512-.103.666-.154.307-.102.563-.307.665-.512.103-.256.205-.563.205-.922V14.183c0-.358-.102-.665-.256-1.075-.153-.358-.358-.666-.665-.82-.205-.153-.512-.255-.922-.306a4.513 4.513 0 0 0-1.075-.154v-1.126l7.782-.41.256.256v10.752h.051c.41-.359.768-.666 1.075-.973.307-.307.717-.563 1.178-.87.41-.256.87-.461 1.485-.615a8.192 8.192 0 0 1 1.996-.256c1.69 0 2.97.46 3.789 1.434.87.972 1.28 2.252 1.28 3.84v7.628c0 .359.051.717.154.922.102.256.307.41.614.563.205.102.41.153.614.205.256.05.512.102.82.153l.153 1.127ZM103.729 31.586c.205-.563.409-1.28.512-2.1.102-.819.153-1.791.153-2.918 0-.716-.051-1.536-.153-2.509-.103-.921-.256-1.689-.461-2.201-.256-.666-.614-1.178-1.024-1.536-.461-.358-.973-.563-1.69-.563-.716 0-1.33.205-1.791.614-.461.41-.769.922-1.025 1.587-.204.615-.358 1.28-.46 2.1-.103.768-.103 1.638-.103 2.457 0 1.126.052 2.1.103 2.816.05.717.256 1.485.512 2.253.256.665.563 1.177 1.024 1.536.46.358 1.024.563 1.689.563.615 0 1.178-.154 1.587-.512.512-.359.82-.87 1.127-1.587Zm3.993-10.803c.768.717 1.383 1.587 1.741 2.56.409 1.024.614 2.099.614 3.225a8.687 8.687 0 0 1-.614 3.277c-.41 1.024-.973 1.894-1.741 2.611a8.237 8.237 0 0 1-2.969 1.792c-1.127.41-2.458.614-3.891.614a11.11 11.11 0 0 1-3.533-.563c-1.075-.358-1.997-.921-2.816-1.638-.768-.717-1.434-1.536-1.894-2.56-.461-1.024-.666-2.202-.666-3.43 0-1.28.205-2.355.614-3.328.41-.973 1.025-1.843 1.792-2.611.768-.717 1.741-1.28 2.868-1.69 1.126-.41 2.406-.614 3.788-.614 1.383 0 2.714.204 3.84.614 1.126.46 2.048 1.024 2.867 1.74Z" fill="#221F1F"/><path d="M119.699 34.457h-9.779V33.33c.256 0 .512-.051.768-.102s.512-.103.665-.154c.308-.102.564-.307.666-.512.102-.256.205-.563.205-.921V14.284c0-.41-.103-.768-.256-1.075-.154-.358-.359-.614-.666-.768-.205-.153-.512-.256-.973-.41-.409-.102-.767-.204-1.126-.204v-1.126l7.833-.41.256.256v20.889c0 .41.052.717.205.921.154.256.359.41.666.564.205.102.409.153.665.256.205.05.512.102.82.153l.051 1.127ZM129.423 25.954c-.563.205-1.178.41-1.741.665-.563.256-1.024.512-1.382.82-.41.307-.666.665-.922 1.126-.204.46-.307.973-.307 1.587 0 .82.205 1.383.563 1.74.359.36.819.564 1.383.564.563 0 1.024-.102 1.382-.358.358-.256.717-.512.973-.87l.051-5.274Zm7.731 8.14c-.461.205-1.024.359-1.638.564a8.196 8.196 0 0 1-1.997.256c-1.28 0-2.202-.205-2.816-.564-.614-.358-1.024-.921-1.229-1.638h-.051c-.358.358-.717.666-1.024.922a4.19 4.19 0 0 1-1.024.614c-.512.205-.973.41-1.434.512-.46.102-1.075.154-1.894.154-1.229 0-2.253-.359-3.072-1.076-.87-.716-1.28-1.69-1.28-2.867 0-.665.103-1.229.256-1.74.205-.461.461-.922.819-1.28.308-.308.666-.615 1.076-.82.409-.204.87-.41 1.382-.614.922-.358 2.048-.717 3.379-1.075s2.253-.717 2.867-1.024v-1.485c0-.256 0-.614-.051-1.024a5.547 5.547 0 0 0-.256-1.075c-.154-.307-.358-.614-.666-.82a2.181 2.181 0 0 0-1.228-.357c-.461 0-.82.05-1.178.204-.307.103-.563.256-.717.41.052.205.103.512.256.973.154.41.205.819.205 1.228 0 .154-.051.41-.153.666-.103.256-.205.46-.41.614a2.598 2.598 0 0 1-.819.461c-.307.102-.768.154-1.383.154-.87 0-1.536-.205-1.996-.615-.461-.41-.666-.972-.666-1.638 0-.563.205-1.126.666-1.536a5.85 5.85 0 0 1 1.689-1.177 9.693 9.693 0 0 1 2.253-.717c.87-.154 1.638-.256 2.355-.256 1.024 0 1.946.05 2.765.204a7.115 7.115 0 0 1 2.304.717c.665.359 1.177.87 1.536 1.587.409.666.563 1.588.563 2.714 0 1.178-.051 2.56-.103 4.198-.051 1.639-.051 2.663-.051 3.175 0 .46.051.819.205 1.126.154.256.358.46.666.614.153.103.46.154.819.154h1.024l.051 1.177Z" fill="#221F1F"/><path d="M17.72 24.216c-2.048-.82-3.482-1.946-3.175-4.813.461-3.84 6.451-8.192 8.397-10.393 1.382-1.536 1.69-5.274 1.69-5.274s1.996 4.199-.308 7.68c-.921 1.382-5.785 6.093-6.758 9.01-.46 1.076-.665 2.51.154 3.79Z" fill="#E91F27"/><path d="M14.28 20.582c-1.997-.87-3.636-2.253-3.277-5.12.512-3.84 6.604-8.09 8.55-10.24C20.935 3.686 21.293 0 21.293 0s1.946 4.198-.46 7.629c-.922 1.484-5.837 6.04-6.912 8.96-.358 1.126-.666 2.56.358 3.993ZM27.543 21.094c2.048.819 3.481 1.945 3.174 4.812-.46 3.84-6.45 8.192-8.396 10.394-1.383 1.536-1.69 5.273-1.69 5.273s-1.997-4.198.307-7.68c.922-1.382 5.786-6.092 6.758-9.01.41-1.076.615-2.51-.153-3.79Z" fill="#E91F27"/><path d="M30.976 24.68c1.996.87 3.635 2.252 3.276 5.12-.512 3.84-6.604 8.089-8.55 10.24-1.382 1.484-1.74 5.221-1.74 5.221s-1.946-4.198.46-7.628c.973-1.383 5.888-5.99 6.912-8.858.358-1.177.614-2.61-.358-4.095Z" fill="#E91F27"/><path d="M24.163 27.596c-.82 2.047-1.946 3.481-4.813 3.174-3.788-.46-8.192-6.502-10.393-8.397-1.536-1.382-5.273-1.69-5.273-1.69s4.198-1.996 7.68.308c1.382.922 6.092 5.785 9.01 6.758 1.075.41 2.56.615 3.789-.153Z" fill="#1E4382"/><path d="M20.582 31.026c-.87 1.997-2.253 3.635-5.12 3.277-3.84-.512-8.09-6.604-10.24-8.55C3.686 24.371 0 24.013 0 24.013s4.198-1.946 7.629.46c1.382.973 5.99 5.888 8.857 6.912 1.177.358 2.61.614 4.096-.359ZM21.043 17.716c.82-2.048 1.945-3.482 4.813-3.175 3.84.461 8.191 6.451 10.393 8.397 1.536 1.382 5.273 1.69 5.273 1.69s-4.198 1.996-7.68-.308c-1.382-.921-6.092-5.785-9.01-6.758-1.076-.41-2.51-.614-3.789.154Z" fill="#1E4382"/><path d="M24.672 14.287c.87-1.997 2.253-3.635 5.12-3.277 3.84.512 8.089 6.605 10.24 8.55 1.535 1.383 5.222 1.741 5.222 1.741s-4.199 1.946-7.629-.46c-1.382-.973-5.99-5.888-8.857-6.912-1.178-.359-2.611-.615-4.096.358Z" fill="#1E4382"/><path d="M135.982 43.52c-.359 0-.768.307-1.229.87a5.154 5.154 0 0 0-.921 1.741h.102a4.753 4.753 0 0 0 1.792-.768c.461-.41.717-.819.717-1.28 0-.153-.052-.307-.103-.358-.102-.154-.205-.205-.358-.205Zm-1.741 5.325c-.512 0-.921-.154-1.229-.461-.307-.307-.46-.717-.46-1.229 0-.154 0-.256.051-.46 0-.154.051-.308.102-.462.205-.716.666-1.382 1.434-2.047.768-.615 1.433-.922 2.099-.922.358 0 .614.051.768.205a.85.85 0 0 1 .256.614c0 .512-.307 1.024-.922 1.434-.614.41-1.433.716-2.457.87h-.103c-.051.102-.051.256-.102.358 0 .154-.051.257-.051.359 0 .358.102.614.307.819.205.205.461.307.819.307.256 0 .563-.051.819-.205.307-.153.615-.41.973-.716l.154.153c-.461.461-.871.768-1.28.973-.359.307-.768.41-1.178.41Zm-2.969-5.018-.922 3.994c-.256 1.126-.563 1.945-.973 2.56-.409.563-.921.87-1.484.87-.256 0-.461-.051-.666-.205-.154-.154-.256-.307-.256-.512 0-.153.051-.256.154-.358.102-.103.204-.154.307-.154.205 0 .358.051.409.205a.382.382 0 0 1 0 .46c-.051.103-.051.154 0 .206.052.05.103.102.205.102.256 0 .461-.154.666-.46.205-.308.358-.82.512-1.486l1.075-5.222h-1.075l.102-.41h1.075c.256-.921.615-1.638.973-2.15.461-.614.973-.921 1.536-.921.307 0 .563.05.768.205.205.153.307.307.307.563a.466.466 0 0 1-.153.358.466.466 0 0 1-.359.154c-.205 0-.307-.103-.409-.256-.103-.154-.052-.359.051-.512.051-.103.051-.154 0-.205-.051-.051-.154-.051-.256-.051-.359 0-.615.256-.871.768-.256.46-.46 1.177-.614 2.048h1.331l-.102.41h-1.331Zm-3.277-3.174c.154 0 .307.051.41.205.102.102.153.307.153.46 0 .205-.051.359-.153.461-.103.103-.256.205-.41.205a.467.467 0 0 1-.41-.205c-.102-.153-.153-.256-.153-.46 0-.205.051-.359.153-.461.103-.154.205-.205.41-.205Zm-1.946 6.963.82-3.02c.102-.36.102-.564 0-.615-.103-.103-.359-.154-.768-.103l.051-.204.973-.154.972-.154.052.052-1.178 4.403c-.051.153-.051.307-.051.41 0 .102.102.102.205.102.102 0 .256-.052.409-.205a6.49 6.49 0 0 0 .615-.768l.153.154c-.358.511-.665.87-.921 1.075-.256.204-.512.307-.768.307-.308 0-.461-.103-.564-.307-.051-.103-.051-.205-.051-.359-.051-.256 0-.41.051-.614Zm-3.635 0 1.587-6.195c.052-.256.052-.41-.051-.46-.102-.052-.358-.103-.87-.103l.051-.205c.359-.051.717-.051.973-.102.256-.052.614-.103 1.024-.205l.051.05-1.894 7.373c-.051.205-.051.308-.051.41.051.102.102.154.204.154.103 0 .256-.103.41-.256.154-.154.409-.461.665-.87l.154.153c-.358.512-.666.921-.921 1.177a1.174 1.174 0 0 1-.82.359c-.307 0-.512-.103-.614-.307 0-.308 0-.615.102-.973Zm-7.833 1.075 1.126-4.147c.103-.41.103-.614 0-.717-.102-.102-.358-.102-.819 0l.051-.205.922-.153.922-.154.051.051-.615 2.355v.052s.052 0 .052-.052c.153-.307.307-.614.46-.87.615-1.024 1.178-1.587 1.69-1.587.256 0 .409.102.512.256a.632.632 0 0 1 .051.614c-.051.154-.102.256-.205.308a.739.739 0 0 1-.358.102c-.103 0-.205 0-.256-.051-.051-.051-.102-.103-.154-.205-.051-.051-.051-.102-.102-.154-.051-.05-.051-.05-.102-.05-.256 0-.615.46-1.127 1.381a27.066 27.066 0 0 0-.768 1.69c-.051.154-.153.358-.205.614-.102.256-.153.461-.204.717l-.052.256-.87-.051Zm-2.201-5.171c-.359 0-.768.307-1.229.87a5.156 5.156 0 0 0-.922 1.741h.103a4.76 4.76 0 0 0 1.792-.768c.46-.41.716-.819.716-1.28 0-.153-.051-.307-.102-.358-.103-.154-.205-.205-.358-.205Zm-1.741 5.325c-.512 0-.922-.154-1.229-.461-.307-.307-.461-.717-.461-1.229 0-.154 0-.256.051-.46.052-.154.052-.308.103-.462.205-.716.665-1.382 1.433-2.047.768-.615 1.434-.922 2.1-.922.358 0 .614.051.767.205a.846.846 0 0 1 .256.614c0 .512-.307 1.024-.921 1.434-.614.41-1.434.716-2.458.87h-.102c-.051.102-.051.256-.102.358 0 .154-.052.257-.052.359 0 .358.103.614.308.819.204.205.46.307.819.307.256 0 .563-.051.819-.205.307-.153.614-.41.973-.716l.153.153c-.46.461-.87.768-1.28.973-.358.307-.768.41-1.177.41Zm-4.966-1.076 1.075-3.942h-.922v-.102c0-.051 0-.103.051-.103.052 0 .103-.05.154-.102.41-.154.717-.358.973-.563.256-.205.512-.461.768-.82l.102-.102c.051 0 .051-.051.102-.051.052 0 .052 0 .052.051v.103l-.359 1.33h.973l-.051.41h-1.024l-1.126 4.045c-.052.154-.052.205 0 .307 0 .051.051.103.153.103.103 0 .205-.103.359-.256a6.61 6.61 0 0 0 .614-.768l.153.153c-.358.512-.665.87-.921 1.075-.256.205-.512.308-.819.308-.307 0-.461-.103-.512-.256.051-.154.102-.461.205-.82Zm-3.431 0 1.075-3.942h-.921v-.102c0-.051 0-.103.051-.103s.102-.05.154-.102c.409-.154.716-.358.972-.563.256-.205.512-.461.768-.82.052-.05.103-.102.103-.102.051 0 .051-.051.102-.051s.051 0 .051.051v.103l-.358 1.33h.973l-.051.41h-1.024l-1.127 4.045c-.051.154-.051.205 0 .307 0 .051.051.103.154.103.102 0 .205-.103.358-.256a6.49 6.49 0 0 0 .615-.768l.153.153c-.358.512-.665.87-.921 1.075-.256.205-.512.308-.82.308-.256 0-.46-.103-.512-.256.103-.154.103-.461.205-.82Zm-2.15-4.249c-.358 0-.768.307-1.229.87a5.16 5.16 0 0 0-.921 1.741h.102a4.753 4.753 0 0 0 1.792-.768c.461-.41.717-.819.717-1.28 0-.153-.051-.307-.103-.358a.443.443 0 0 0-.358-.205Zm-1.74 5.325c-.513 0-.922-.154-1.23-.461-.307-.307-.46-.717-.46-1.229 0-.154 0-.256.05-.46.052-.154.052-.308.103-.462.205-.716.666-1.382 1.434-2.047.768-.615 1.433-.922 2.099-.922.358 0 .614.051.768.205a.85.85 0 0 1 .256.614c0 .512-.307 1.024-.922 1.434-.614.41-1.433.716-2.457.87h-.103c-.05.102-.05.256-.102.358 0 .154-.051.257-.051.359 0 .358.102.614.307.819.205.205.46.307.82.307.255 0 .562-.051.818-.205.308-.153.615-.41.973-.716l.154.153c-.461.461-.87.768-1.28.973-.359.307-.768.41-1.178.41Zm-6.298-.308c.512 0 1.024-.256 1.587-.819a3.846 3.846 0 0 0 1.126-1.843c.052-.205.103-.358.103-.563.05-.205.05-.358.05-.46 0-.36-.05-.615-.255-.769-.154-.205-.359-.256-.666-.256-.46 0-.921.307-1.33.922-.36.512-.666 1.228-.974 2.048l-.153.512c-.051.256-.103.46-.154.614 0 .154 0 .256.051.307l.052.051c.102.205.307.256.563.256Zm.205-7.116c.05-.256.05-.41-.052-.46-.102-.052-.358-.103-.87-.103l.051-.205c.359-.051.717-.051.973-.102.307-.052.614-.103 1.024-.205l.051.05-1.28 4.609.307-.461c.666-.82 1.28-1.229 1.946-1.229.46 0 .82.154 1.075.41.256.256.41.614.41 1.075 0 .102 0 .256-.052.41 0 .153-.05.307-.102.46-.205.82-.717 1.536-1.485 2.202-.768.665-1.536.973-2.304.973a2.98 2.98 0 0 1-.972-.154 1.3 1.3 0 0 1-.666-.46l1.946-6.81Zm-7.578 2.15c-.41 0-.87.307-1.382.87a5.144 5.144 0 0 0-1.024 2.048 1.515 1.515 0 0 0-.102.513c0 .153-.052.307-.052.41 0 .306.052.511.205.665.154.153.307.256.563.256.461 0 .922-.308 1.332-.87.46-.564.819-1.332 1.023-2.254.154-.511.154-.921.052-1.177-.103-.358-.308-.46-.615-.46Zm-2.355 5.274c-.358 0-.665-.103-.921-.359a1.542 1.542 0 0 1-.359-1.024c0-.102 0-.256.051-.41 0-.153.052-.306.103-.46a5.355 5.355 0 0 1 1.382-2.304c.717-.666 1.383-1.024 1.997-1.024.41 0 .717.154.922.512.05.051.05.154.102.205l.153-.615.87-.102-1.228 4.454c-.051.154-.051.307-.051.41 0 .102.102.153.205.153.102 0 .256-.05.41-.204.153-.154.358-.359.562-.666l.154.154c-.307.46-.614.819-.87 1.024-.256.204-.512.307-.717.307-.256 0-.46-.103-.563-.307-.103-.205-.103-.512.05-.922l.154-.614c-.204.307-.358.614-.614.87-.512.563-1.126.922-1.792.922Zm-8.755-.154 1.127-4.147c.102-.41.102-.666 0-.717-.103-.102-.359-.102-.82 0l.052-.205.921-.153.922-.154.051.051-.614 2.355v.052s.05 0 .05-.052c.154-.307.308-.614.462-.87.614-1.024 1.177-1.587 1.69-1.587.255 0 .409.102.511.256a.63.63 0 0 1 .051.614c-.05.154-.102.256-.205.308a.74.74 0 0 1-.358.102c-.102 0-.205 0-.256-.051a.707.707 0 0 1-.153-.205c-.052-.051-.052-.102-.103-.154-.051-.05-.051-.05-.102-.05-.256 0-.615.46-1.127 1.381a27.066 27.066 0 0 0-.768 1.69c-.05.154-.153.358-.204.614-.103.256-.154.461-.205.717l-.051.256-.87-.051ZM71.32 43.52c-.359 0-.768.307-1.23.87a5.16 5.16 0 0 0-.92 1.741h.102a4.754 4.754 0 0 0 1.792-.768c.46-.41.716-.819.716-1.28 0-.153-.05-.307-.102-.358-.103-.154-.205-.205-.358-.205Zm-1.741 5.325c-.512 0-.922-.154-1.229-.461-.307-.307-.46-.717-.46-1.229 0-.154 0-.256.05-.46.052-.154.052-.308.103-.462.205-.716.665-1.382 1.433-2.047.768-.615 1.434-.922 2.1-.922.358 0 .614.051.767.205a.848.848 0 0 1 .257.614c0 .512-.308 1.024-.922 1.434-.614.41-1.434.716-2.458.87h-.102c-.051.102-.051.256-.102.358 0 .154-.052.257-.052.359 0 .358.103.614.308.819.204.205.46.307.819.307.256 0 .563-.051.819-.205.307-.153.614-.41.973-.716l.153.153c-.41.461-.87.768-1.28.973-.307.307-.716.41-1.177.41Zm-4.966-1.076 1.075-3.942h-.922v-.102c0-.051 0-.103.051-.103.052 0 .103-.05.154-.102.41-.154.717-.358.973-.563.256-.205.512-.461.768-.82l.102-.102c.051 0 .051-.051.102-.051.052 0 .052 0 .052.051v.103l-.359 1.33h.973l-.051.41h-1.024l-1.126 4.045c-.052.154-.052.205 0 .307 0 .051.05.103.153.103s.205-.103.358-.256a6.54 6.54 0 0 0 .615-.768l.153.153c-.358.512-.665.87-.921 1.075-.256.205-.512.308-.82.308-.255 0-.46-.103-.511-.256.102-.154.102-.461.205-.82Zm-6.503.922 1.127-4.147c.102-.358.102-.563 0-.666-.103-.102-.359-.102-.768-.102l.051-.205.973-.153.973-.154.05.051-.767 2.56h.051c.256-.41.512-.768.768-1.177.768-.973 1.382-1.485 1.946-1.485.41 0 .665.153.767.41.103.255.103.716-.102 1.33l-.717 2.714c-.05.205-.05.307-.05.41 0 .102.102.153.204.153s.256-.051.41-.205a6.54 6.54 0 0 0 .614-.767l.153.153c-.358.512-.665.87-.921 1.075-.256.205-.512.307-.768.307-.307 0-.46-.102-.563-.307-.103-.205-.103-.512 0-.921l.768-2.816c.05-.256.102-.461.05-.615-.05-.153-.153-.204-.306-.204-.461 0-.973.46-1.587 1.33a14.775 14.775 0 0 0-.973 1.793 3.525 3.525 0 0 1-.205.512c-.051.204-.102.358-.154.563l-.153.614-.87-.051Zm-7.68 0 .052-.205c.307-.051.512-.102.666-.205.102-.102.256-.358.307-.716l1.484-5.479c.154-.511.154-.87.052-1.023-.103-.154-.41-.257-.922-.257l.051-.204h6.144l-.205.921-.205.922h-.256c.103-.614 0-1.024-.256-1.178-.255-.153-.87-.256-1.894-.256h-.563c-.205 0-.307.051-.41.103-.102.05-.153.205-.204.358l-.768 2.714h.204c.922 0 1.485-.052 1.741-.154.256-.102.46-.46.717-.973h.256l-.41 1.434-.41 1.433h-.255c.102-.614.102-.973-.103-1.075-.153-.153-.665-.205-1.536-.205H53.4l-.717 2.663c-.102.41-.102.665 0 .768.103.102.359.204.768.204 1.075 0 1.843-.102 2.304-.307.461-.205.973-.665 1.485-1.382l.205.102-.41 1.024-.41 1.024-6.194-.051Z" fill="#221F1F"/><path d="M142.689 36.143a.592.592 0 0 1-.615-.614V19.146c0-.359.256-.615.615-.615.358 0 .614.256.614.615V35.58c0 .307-.307.563-.614.563Z" fill="#6E7172"/></svg>